<svg xmlns="http://www.w3.org/2000/svg" width="512" height="512" fill="none">
  <g clip-path="url(#clip0)">
    <g stroke="#fff" opacity=".4">
      <rect width="340" height="468" x="87.5" y="22.5" opacity=".72" rx="35.5"/>
      <rect width="404" height="404" x="55.5" y="54.5" opacity=".72" rx="35.5"/>
      <rect width="468" height="340" x="23.5" y="86.5" opacity=".72" rx="35.5"/>
      <path d="M491.5 256.5c0 129.24-104.76 234-234 234s-234-104.76-234-234 104.76-234 234-234 234 104.77 234 234z"/>
      <path d="M362.5 256.5c0 57.99-47.01 105-105 105s-105-47.01-105-105 47.01-105 105-105 105 47.01 105 105z"/>
      <path d="M183.5 182.5h148v148h-148z"/>
      <path stroke-linecap="square" d="M183.5.5v512M257.5 0v512M331.5 0v512M513.5 182.5H1.5M513 256.5H1M513.5 330.5H1.5M1.5.5l512 512M513.5.5l-512 512"/>
    </g>
    <rect width="405" height="405" x="55" y="52" fill="#01579B" rx="30"/>
    <path fill="#fff" d="M326 116.77h-92l34.5 34.33-80.5 80.1 23 22.9 80.5-80.11 34.5 34.33v-91.55zm-80.5 240.31l80.5-80.1-23-22.89-80.5 80.1-34.5-34.33v91.55h92l-34.5-34.33z"/>
  </g>
  <defs>
    <clipPath id="clip0">
      <path fill="#fff" d="M0 0h512v512H0z"/>
    </clipPath>
  </defs>
</svg>
